<?xml version="1.0" encoding="UTF-8"?>
<!--Generator: Apple Native CoreSVG 341-->
<!DOCTYPE svg
PUBLIC "-//W3C//DTD SVG 1.1//EN"
       "http://www.w3.org/Graphics/SVG/1.1/DTD/svg11.dtd">
<svg version="1.1" xmlns="http://www.w3.org/2000/svg" xmlns:xlink="http://www.w3.org/1999/xlink" viewBox="0 0 156.636 189.706">
 <g>
  <rect height="189.706" opacity="0" width="156.636" x="0" y="0"/>
  <path d="M126.753 95.874L137.461 106.482C139.204 108.176 139.204 111.064 137.461 112.808C135.718 114.551 132.879 114.601 131.136 112.857L120.478 102.199C118.734 100.506 118.734 97.5674 120.478 95.874C122.171 94.1309 125.06 94.1807 126.753 95.874ZM122.121 66.041C122.121 83.5225 108.176 97.5176 90.7441 97.5176C89.288 97.5176 87.8563 97.4199 86.4665 97.1966L86.5107 44.6748C86.5107 41.2738 86.027 38.0685 85.0943 35.1431C86.919 34.7865 88.8101 34.6143 90.7441 34.6143C108.176 34.6143 122.121 48.6094 122.121 66.041ZM156.636 66.041C156.636 68.5312 154.644 70.5234 152.153 70.5234L137.162 70.5234C134.722 70.5234 132.68 68.5312 132.68 66.041C132.68 63.5508 134.722 61.5586 137.162 61.5586L152.153 61.5586C154.644 61.5586 156.636 63.5508 156.636 66.041ZM137.461 19.374C139.204 21.1172 139.204 24.0059 137.461 25.749L126.853 36.3574C125.109 38.1504 122.121 38.1006 120.478 36.3574C118.784 34.6641 118.734 31.7754 120.478 30.082L131.136 19.374C132.879 17.6309 135.718 17.6309 137.461 19.374ZM95.2764 4.48242L95.2764 19.4736C95.2764 21.9141 93.2344 24.0059 90.7441 24.0059C88.2539 24.0059 86.2119 21.9141 86.2119 19.4736L86.2119 4.48242C86.2119 1.99219 88.2539 0 90.7441 0C93.2344 0 95.2764 1.99219 95.2764 4.48242Z" fill="black" fill-opacity="0.85"/>
  <path d="M60.1641 166.049C78.3428 166.049 93.0352 151.307 93.0352 133.178C93.0352 123.615 89.0508 115.148 81.3311 108.375C79.8369 107.08 79.5381 106.233 79.5381 104.142L79.5879 44.6748C79.5879 32.2236 71.6689 23.707 60.1641 23.707C48.6094 23.707 40.6406 32.2236 40.6406 44.6748L40.6904 104.142C40.6904 106.233 40.3916 107.08 38.8975 108.375C31.1777 115.148 27.1934 123.615 27.1934 133.178C27.1934 151.307 41.8857 166.049 60.1641 166.049ZM60.1641 158.08C46.418 158.08 35.2617 146.874 35.2617 133.178C35.2617 125.109 38.9971 117.788 45.9199 113.057C48.0117 111.662 48.8086 110.218 48.8086 107.528L48.8086 44.9736C48.8086 37.1045 53.4404 31.7754 60.1641 31.7754C66.7881 31.7754 71.4199 37.1045 71.4199 44.9736L71.4199 107.528C71.4199 110.218 72.2168 111.662 74.3086 113.057C81.2314 117.788 84.9668 125.109 84.9668 133.178C84.9668 146.874 73.8105 158.08 60.1641 158.08Z" fill="black" fill-opacity="0.85"/>
  <path d="M60.1143 149.414C69.0791 149.414 76.3008 142.143 76.3008 133.128C76.3008 126.853 72.8145 121.673 67.6348 118.884C65.4434 117.738 64.7461 116.892 64.7461 113.654L64.7461 50.8008C64.7461 47.7627 62.7041 45.6709 60.1143 45.6709C57.5244 45.6709 55.4824 47.7627 55.4824 50.8008L55.4824 113.654C55.4824 116.892 54.7852 117.738 52.5938 118.884C47.4141 121.673 43.9277 126.853 43.9277 133.128C43.9277 142.192 51.1494 149.414 60.1143 149.414Z" fill="black" fill-opacity="0.85"/>
 </g>
</svg>
